# xmcd
# 
# Track frame offsets:
#     150
#     21645
#     47817
# 
# Disc length: 920
# 
# Revision: 16
# Processed by: cddbd v1.5.2PL0 Copyright (c) Steve Scherf et al.
# Submitted via: fre:ac v1.0.17
# 
DISCID=24039603
DTITLE=CHAGE and ASKA - SAY YES
DYEAR=1991
DGENRE=J-Pop
TTITLE0=SAY YES
TTITLE1=告白
TTITLE2=SAY YES (オリジナル・カラオケ)
EXTD=
EXTT0=
EXTT1=
EXTT2=
PLAYORDER=
